<?xml version="1.0" standalone="no"?>
<!DOCTYPE svg PUBLIC "-//W3C//DTD SVG 20010904//EN"
 "http://www.w3.org/TR/2001/REC-SVG-20010904/DTD/svg10.dtd">
<svg version="1.0" xmlns="http://www.w3.org/2000/svg"
 width="260.000000pt" height="260.000000pt" viewBox="0 0 260.000000 260.000000"
 preserveAspectRatio="xMidYMid meet">
<metadata>
Created by potrace 1.11, written by Peter Selinger 2001-2013
</metadata>
<g transform="translate(0.000000,260.000000) scale(0.100000,-0.100000)"
fill="#000000" stroke="none">
<path d="M1233 2455 c-50 -5 -95 -13 -99 -17 -4 -5 -16 -8 -26 -8 -10 0 -65
-23 -121 -52 -89 -46 -115 -66 -208 -159 -166 -166 -229 -302 -229 -496 0 -85
-2 -95 -19 -100 -31 -8 -44 -86 -16 -97 34 -13 42 -116 9 -116 -22 0 -26 -40
-23 -203 3 -130 7 -157 23 -182 11 -17 26 -35 34 -41 8 -6 17 -41 22 -85 16
-133 31 -193 66 -260 33 -63 34 -68 23 -110 -14 -52 -6 -97 19 -106 9 -4 40
-25 67 -48 28 -23 83 -66 124 -95 40 -30 67 -56 61 -58 -7 -3 -17 3 -22 13 -7
12 -17 15 -34 11 -21 -6 -24 -3 -24 19 0 15 -4 24 -10 20 -6 -4 -8 -11 -5 -16
11 -17 -12 -9 -36 12 -13 11 -18 17 -10 13 9 -4 12 -2 9 7 -3 8 -12 14 -22 14
-9 0 -22 7 -27 15 -9 13 -10 12 -5 -3 3 -9 1 -17 -4 -17 -11 0 -24 21 -25 40
0 8 -6 15 -12 15 -7 0 -20 10 -29 23 -12 18 -19 20 -29 12 -12 -10 -9 -19 13
-53 25 -39 38 -52 117 -121 17 -15 37 -32 45 -40 8 -7 25 -17 38 -20 12 -4 27
-16 32 -26 6 -11 17 -17 24 -14 8 3 23 -3 33 -13 10 -10 26 -17 36 -15 10 2
24 -3 30 -11 13 -16 61 -31 51 -16 -3 5 0 9 5 9 6 0 11 -5 11 -11 0 -7 11 -9
27 -6 25 5 26 4 10 -8 -10 -7 -14 -16 -8 -19 5 -3 16 0 24 8 8 8 17 12 21 9 3
-4 6 1 6 9 0 20 31 33 40 17 4 -6 11 -10 16 -10 5 1 9 -7 10 -17 1 -15 -6 -18
-42 -15 -45 4 -58 -9 -26 -25 9 -5 41 -10 70 -11 51 -1 52 0 51 27 -1 28 -16
85 -18 68 -2 -16 -30 27 -31 45 0 9 7 19 15 23 9 3 15 0 15 -9 0 -8 7 -15 16
-15 8 0 12 -5 9 -10 -11 -18 6 -50 26 -50 28 0 27 66 -1 75 -17 5 -29 25 -15
25 13 0 45 -37 45 -52 0 -9 5 -20 10 -23 7 -4 9 2 5 17 -6 28 7 52 26 46 14
-5 20 -68 7 -68 -5 0 -8 -9 -8 -21 0 -11 4 -18 9 -15 5 4 11 0 14 -6 2 -7 4 2
5 21 1 39 12 56 13 20 0 -22 1 -23 9 -4 5 11 9 14 9 6 1 -11 6 -10 26 3 22 14
25 15 25 1 0 -8 5 -15 11 -15 7 0 9 10 7 24 -4 20 -1 23 19 21 18 -2 21 1 12
11 -14 17 -3 35 19 28 15 -5 15 -4 -1 6 -14 9 -22 9 -33 0 -9 -9 -14 -9 -14
-1 0 7 -7 7 -25 -1 -14 -6 -28 -8 -32 -4 -9 9 18 27 29 20 4 -3 8 -1 8 3 0 5
16 15 35 22 19 7 33 16 31 20 -3 4 4 8 16 8 30 3 218 155 218 177 0 20 69 146
90 166 10 9 90 180 88 187 -1 5 2 26 6 48 23 131 39 299 39 432 0 84 -3 156
-6 160 -4 3 -16 -3 -27 -14 -10 -12 -33 -24 -50 -28 -21 -5 -30 -12 -30 -27 0
-13 5 -18 14 -15 17 7 28 -28 19 -61 -3 -12 -1 -28 5 -35 13 -15 10 -74 -5
-102 -6 -11 -8 -26 -6 -32 3 -7 -2 -13 -11 -13 -20 0 -87 -37 -104 -59 -11
-13 -14 -14 -19 -2 -11 28 -31 -29 -23 -66 9 -38 -7 -93 -27 -93 -8 0 -18 11
-23 25 -5 14 -16 25 -25 25 -13 0 -19 12 -16 33 0 4 -8 8 -19 9 -11 0 -26 1
-32 2 -7 1 -23 13 -36 28 -13 16 -29 25 -37 21 -9 -3 -15 1 -15 11 0 9 6 16
13 16 18 0 41 29 61 80 10 25 22 51 28 58 14 16 3 15 -32 -3 -17 -9 -30 -14
-30 -11 0 2 -16 0 -36 -4 -23 -5 -45 -4 -60 2 -18 9 -36 7 -75 -6 -34 -10 -56
-13 -63 -7 -15 13 -41 -3 -31 -19 4 -7 -5 -5 -24 4 -17 9 -31 21 -31 26 0 6
-9 10 -21 10 -11 0 -17 4 -14 10 3 5 2 25 -3 44 -8 28 -7 34 4 29 8 -3 14 1
14 11 0 9 -8 16 -17 16 -11 0 -14 3 -7 8 27 18 39 61 40 152 2 144 3 144 47
148 38 3 40 2 51 -49 3 -14 24 -46 46 -70 32 -35 40 -39 35 -21 -5 17 -1 28
13 38 12 8 22 24 24 37 2 16 11 23 33 25 l30 4 -22 -24 c-26 -28 -34 -69 -14
-76 9 -3 11 1 6 17 -6 20 -3 21 47 21 42 -1 49 -3 35 -11 -16 -10 -13 -14 26
-39 25 -15 47 -34 49 -41 7 -22 261 -14 300 9 15 9 26 22 24 29 -3 7 -1 15 4
18 6 4 10 23 11 43 1 56 13 86 36 97 38 19 53 37 53 64 0 39 -10 48 -60 56
l-45 7 -3 80 c-2 58 -10 99 -27 143 -14 34 -25 66 -25 71 0 5 -12 23 -26 39
-14 18 -21 22 -16 10 5 -11 7 -26 4 -34 -3 -8 0 -11 7 -7 6 4 11 2 11 -3 0 -6
-4 -11 -9 -11 -15 0 -92 78 -81 82 5 2 -13 4 -40 5 -28 0 -50 -3 -50 -7 0 -15
18 -21 23 -8 3 8 6 6 6 -4 1 -10 8 -18 16 -18 8 0 15 -5 15 -11 0 -5 -4 -7
-10 -4 -14 9 -13 -8 2 -23 9 -9 9 -12 -1 -12 -7 0 -10 -4 -7 -9 4 -5 0 -12 -6
-14 -7 -3 -4 -6 7 -7 21 -1 91 -83 75 -88 -5 -2 2 -15 15 -30 30 -32 26 -39
-9 -17 -20 13 -32 15 -58 7 -18 -6 -60 -13 -92 -17 -64 -7 -96 -22 -96 -43 0
-8 -6 -12 -12 -9 -7 2 -32 -7 -55 -20 -23 -14 -47 -22 -52 -18 -6 3 -19 -3
-29 -13 -11 -11 -35 -22 -53 -25 -35 -5 -72 -14 -76 -17 -5 -4 -23 -8 -49 -9
-14 0 -23 -5 -20 -10 3 -5 25 -7 49 -5 l42 4 -35 -12 c-19 -7 -40 -19 -46 -26
-13 -17 -25 -4 -29 32 -1 11 -3 24 -4 28 0 3 -13 11 -28 17 -34 14 -65 32 -87
50 -11 9 -16 10 -16 2 0 -12 -39 5 -52 24 -5 6 -8 5 -8 -4 0 -11 -3 -11 -15
-1 -13 11 -13 15 -3 21 10 7 10 9 1 10 -7 1 -18 2 -23 3 -6 0 -15 8 -20 16 -6
10 -26 15 -65 15 -52 0 -56 1 -50 22 6 27 -8 38 -25 18 -14 -17 -30 -20 -30
-5 0 5 16 17 36 26 20 9 39 27 44 38 4 12 25 32 47 44 48 30 79 85 58 105 -16
17 -2 37 26 37 15 0 17 6 12 34 -5 34 16 74 31 58 4 -3 4 1 1 10 -8 21 3 41
17 32 6 -4 5 -10 -3 -15 -9 -5 3 -7 29 -5 29 2 50 11 65 27 18 20 22 21 25 7
5 -24 23 -28 72 -15 34 10 44 9 47 0 3 -7 20 -13 39 -13 20 0 33 4 29 10 -3 5
-13 7 -23 4 -9 -3 -6 1 8 10 24 14 36 15 141 1 41 -6 47 -4 52 14 7 27 47 28
70 1 9 -11 24 -20 32 -20 9 0 13 -4 10 -10 -6 -9 11 -14 44 -12 8 0 21 -7 28
-16 10 -14 12 -14 13 -2 0 17 -110 126 -142 141 -13 5 -36 17 -51 25 -52 29
-172 66 -217 68 -25 1 -86 -3 -137 -9z m487 -645 c0 -5 -5 -10 -11 -10 -5 0
-7 5 -4 10 3 6 8 10 11 10 2 0 4 -4 4 -10z m-715 -10 c3 -5 1 -10 -4 -10 -6 0
-11 5 -11 10 0 6 2 10 4 10 3 0 8 -4 11 -10z m703 -87 c-10 -2 -28 -2 -40 0
-13 2 -5 4 17 4 22 1 32 -1 23 -4z m-71 -9 c-3 -3 -12 -4 -19 -1 -8 3 -5 6 6
6 11 1 17 -2 13 -5z m233 -3 c3 -1 -2 -6 -10 -11 -12 -8 -13 -11 -1 -19 7 -5
9 -11 4 -14 -10 -6 -232 -23 -247 -19 -5 2 -16 0 -25 -4 -33 -14 -53 -10 -64
13 -5 13 -19 23 -31 24 -16 0 -13 3 9 10 17 5 31 5 33 0 1 -4 24 -4 50 1 71
14 255 27 282 19z m87 -7 c-3 -3 -12 -4 -19 -1 -8 3 -5 6 6 6 11 1 17 -2 13
-5z m113 -14 c0 -5 -7 -10 -15 -10 -10 0 -15 -10 -15 -28 0 -30 -16 -52 -38
-52 -9 0 -11 7 -7 19 3 11 1 22 -5 26 -5 3 -10 17 -10 31 0 22 4 24 45 24 25
0 45 -4 45 -10z m-1122 -7 c-10 -2 -28 -2 -40 0 -13 2 -5 4 17 4 22 1 32 -1
23 -4z m172 -13 c21 -7 19 -8 -15 -8 -22 0 -60 3 -85 7 l-45 8 60 1 c33 0 71
-4 85 -8z m310 3 c0 -5 -5 -15 -10 -23 -8 -13 -10 -13 -10 2 0 9 -10 19 -22
21 -17 3 -14 5 10 6 17 0 32 -2 32 -6z m-210 -13 c0 -5 -7 -7 -15 -4 -8 4 -15
8 -15 10 0 2 7 4 15 4 8 0 15 -4 15 -10z m270 -17 c-1 -27 -1 -27 -15 -9 -14
19 -12 36 6 36 5 0 9 -12 9 -27z m-436 11 c20 -8 21 -40 2 -47 -22 -9 -95 4
-93 17 1 6 -9 11 -23 13 -14 1 -17 -1 -7 -3 9 -3 17 -10 17 -15 0 -12 -51 -11
-70 1 -13 8 -12 10 4 10 29 0 11 12 -31 20 -26 5 -4 8 74 9 61 0 118 -2 127
-5z m701 -24 c39 -15 21 -30 -36 -30 -36 0 -49 4 -49 14 0 13 16 22 47 25 6 0
24 -3 38 -9z m-1205 -30 c0 -5 -4 -10 -10 -10 -5 0 -10 5 -10 10 0 6 5 10 10
10 6 0 10 -4 10 -10z m1170 -30 c0 -5 -4 -10 -10 -10 -5 0 -10 5 -10 10 0 6 5
10 10 10 6 0 10 -4 10 -10z m-610 -30 c11 -11 17 -26 13 -36 -5 -14 -7 -14
-16 2 -6 11 -16 23 -24 27 -15 9 -17 27 -3 27 6 0 19 -9 30 -20z m532 -4 c5
-22 2 -24 -44 -23 -47 1 -71 17 -25 17 12 0 31 7 41 15 25 19 23 19 28 -9z
m-632 -16 c0 -6 -5 -10 -11 -10 -8 0 -8 -4 0 -14 9 -11 4 -15 -28 -20 -43 -6
-74 1 -65 15 3 5 16 6 29 3 20 -5 24 -1 30 25 6 27 9 29 26 21 10 -6 19 -15
19 -20z m220 17 c0 -7 -7 -22 -15 -33 -13 -17 -14 -16 -4 14 11 33 19 41 19
19z m174 -3 c3 -8 2 -12 -4 -9 -6 3 -10 10 -10 16 0 14 7 11 14 -7z m396 -9
c0 -7 -7 -15 -15 -19 -16 -6 -19 3 -9 28 7 18 24 12 24 -9z m-974 -22 c-10
-10 -19 5 -10 18 6 11 8 11 12 0 2 -7 1 -15 -2 -18z m224 8 c0 -5 9 -13 20
-16 11 -3 20 -14 20 -22 0 -9 -3 -13 -7 -10 -3 4 -12 -5 -20 -19 -11 -23 -11
-28 1 -38 8 -6 16 -22 18 -35 2 -20 -4 -26 -37 -38 -65 -23 -278 -38 -331 -23
-25 7 -42 15 -40 18 3 3 62 4 131 3 114 -2 127 0 154 20 28 20 29 23 13 35
-16 12 -14 16 20 47 23 21 39 44 40 60 2 24 18 40 18 18z m665 -21 c3 -5 -3
-10 -14 -10 -12 0 -21 5 -21 10 0 6 6 10 14 10 8 0 18 -4 21 -10z m-652 -209
c-4 -30 -94 -141 -115 -141 -12 0 -18 -8 -19 -22 -1 -23 -1 -29 8 -59 3 -10
-3 -18 -17 -22 -16 -4 -23 0 -30 19 -5 13 -21 29 -35 34 -14 5 -25 16 -25 24
0 8 -12 17 -27 21 -19 4 -33 18 -45 42 -16 35 -16 36 7 59 13 13 21 24 18 24
-4 0 -4 3 -1 6 4 3 15 1 25 -5 14 -7 27 -6 48 5 15 8 30 12 33 9 3 -3 11 0 18
6 12 10 128 29 149 24 6 -1 9 -12 8 -24z m112 -4 c0 -1 11 -15 25 -31 14 -16
19 -26 13 -22 -13 7 -17 -3 -14 -36 4 -35 -62 -31 -107 7 -39 34 5 103 58 90
14 -4 25 -7 25 -8z m229 -258 c31 -13 46 -25 42 -34 -6 -18 19 -40 29 -25 4 7
11 8 18 2 22 -17 65 -23 70 -9 3 9 8 9 18 -2 9 -9 9 -11 2 -7 -22 12 -14 -11
10 -28 l22 -17 -25 7 c-14 3 -59 9 -101 11 -78 5 -126 -7 -113 -29 4 -7 3 -8
-4 -4 -7 4 -12 2 -12 -3 0 -17 -15 -13 -46 14 -16 14 -46 28 -66 31 -21 4 -38
10 -38 15 0 5 4 9 9 9 5 0 7 8 4 19 -3 13 7 25 39 44 53 32 81 33 142 6z
m-477 -17 c-10 -10 -17 -23 -17 -29 0 -6 -7 -13 -15 -17 -8 -3 -15 -1 -15 3 0
5 5 11 11 13 5 2 12 12 14 23 2 11 4 21 4 23 1 1 8 2 18 2 15 0 15 -1 0 -18z
m563 -7 c0 -8 -4 -15 -10 -15 -5 0 -7 7 -4 15 4 8 8 15 10 15 2 0 4 -7 4 -15z
m280 -147 c0 -21 -18 -43 -27 -34 -4 5 -3 11 4 13 7 2 9 11 6 19 -3 8 0 14 6
14 6 0 11 -6 11 -12z m-370 -19 c83 1 98 -1 120 -19 15 -13 19 -20 10 -19 -27
3 -40 -1 -40 -11 0 -5 9 -10 19 -10 11 0 23 -5 26 -10 10 -16 -17 -79 -37 -86
-10 -3 -18 -11 -18 -18 0 -8 -7 -19 -15 -26 -13 -11 -15 -10 -9 6 5 18 5 18
-9 2 -14 -18 -80 -22 -70 -5 3 5 -28 7 -68 6 -58 -3 -81 1 -106 16 -17 10 -29
23 -27 29 2 6 -12 22 -31 35 -40 27 -43 37 -15 46 27 9 25 25 -2 22 -17 -1
-23 3 -23 18 0 12 7 20 17 20 9 0 20 4 25 8 4 5 42 5 83 1 41 -4 118 -6 170
-5z m380 -113 c0 -3 -4 -8 -10 -11 -5 -3 -10 -1 -10 4 0 6 5 11 10 11 6 0 10
-2 10 -4z m-90 -16 c0 -5 -9 -14 -20 -20 -22 -12 -27 -1 -8 18 14 14 28 16 28
2z m17 -86 c-3 -3 -12 -4 -19 -1 -8 3 -5 6 6 6 11 1 17 -2 13 -5z m-44 -19
c-3 -9 -8 -14 -10 -11 -3 3 -2 9 2 15 9 16 15 13 8 -4z m-48 -64 c3 -5 2 -12
-3 -15 -5 -3 -9 1 -9 9 0 17 3 19 12 6z m-205 -14 c31 4 38 2 42 -15 3 -11 2
-24 -3 -29 -4 -4 3 -9 16 -9 14 -1 23 1 21 5 -3 4 9 14 25 23 20 12 31 14 36
5 3 -6 1 -13 -6 -15 -9 -3 -9 -7 0 -18 8 -10 8 -14 0 -14 -6 0 -11 -6 -11 -14
0 -14 -21 -26 -46 -26 -8 0 -13 6 -11 13 1 8 -10 11 -37 10 -22 -2 -44 1 -50
6 -22 17 -66 22 -72 8 -3 -8 -11 -14 -19 -14 -10 0 -11 6 -4 24 13 34 11 41
-7 39 -9 0 -19 5 -21 11 -3 9 7 12 31 11 20 -1 39 2 42 5 4 4 14 3 22 -2 8 -5
32 -6 52 -4z m170 -37 c0 -5 -5 -10 -11 -10 -5 0 -7 5 -4 10 3 6 8 10 11 10 2
0 4 -4 4 -10z m-258 -80 c-6 -16 -11 -20 -16 -11 -4 6 -2 19 5 27 16 20 21 12
11 -16z m-275 -222 c-3 -8 -6 -5 -6 6 -1 11 2 17 5 13 3 -3 4 -12 1 -19z m110
-90 c-3 -8 -6 -5 -6 6 -1 11 2 17 5 13 3 -3 4 -12 1 -19z"/>
<path d="M1487 443 c-14 -4 -16 -8 -6 -19 9 -11 15 -12 25 -3 15 12 19 30 7
28 -5 -1 -16 -3 -26 -6z"/>
<path d="M1615 2290 c3 -5 11 -10 16 -10 6 0 7 5 4 10 -3 6 -11 10 -16 10 -6
0 -7 -4 -4 -10z"/>
<path d="M1741 2124 c0 -11 3 -14 6 -6 3 7 2 16 -1 19 -3 4 -6 -2 -5 -13z"/>
<path d="M1705 2120 c4 -6 11 -8 16 -5 14 9 11 15 -7 15 -8 0 -12 -5 -9 -10z"/>
<path d="M1010 2030 c0 -5 4 -10 9 -10 6 0 13 5 16 10 3 6 -1 10 -9 10 -9 0
-16 -4 -16 -10z"/>
<path d="M1736 2021 c-4 -5 -1 -13 5 -17 8 -4 9 -3 5 4 -4 7 -3 12 3 12 5 0
12 -5 14 -10 3 -6 4 -5 3 2 -3 16 -23 22 -30 9z"/>
<path d="M1534 1345 c11 -8 34 -15 50 -14 28 0 27 2 -14 15 -56 17 -60 17 -36
-1z"/>
<path d="M1688 1323 c7 -3 16 -2 19 1 4 3 -2 6 -13 5 -11 0 -14 -3 -6 -6z"/>
<path d="M1720 1320 c0 -5 10 -10 23 -10 18 0 19 2 7 10 -19 13 -30 13 -30 0z"/>
<path d="M1778 1313 c6 -2 18 -2 25 0 6 3 1 5 -13 5 -14 0 -19 -2 -12 -5z"/>
<path d="M620 110 c0 -5 4 -10 9 -10 5 0 15 -16 21 -35 13 -40 26 -46 26 -12
0 12 -8 28 -18 35 -10 7 -16 18 -13 23 4 5 -1 9 -9 9 -9 0 -16 -4 -16 -10z"/>
<path d="M692 61 c-8 -4 -10 -15 -6 -26 7 -17 8 -16 16 5 10 27 7 32 -10 21z"/>
</g>
</svg>
